<?xml version="1.0" encoding="UTF-8"?>
<svg xmlns="http://www.w3.org/2000/svg" xmlns:xlink="http://www.w3.org/1999/xlink" width="32px" height="28px" viewBox="0 0 32 28" version="1.1">
<g id="surface1">
<path style=" stroke:none;fill-rule:nonzero;fill:rgb(38.039216%,85.490196%,98.431373%);fill-opacity:1;" d="M 18.789062 14 C 18.789062 15.550781 17.539062 16.804688 16 16.804688 C 14.460938 16.804688 13.210938 15.550781 13.210938 14 C 13.210938 12.449219 14.460938 11.195312 16 11.195312 C 17.539062 11.195312 18.789062 12.449219 18.789062 14 Z M 18.789062 14 "/>
<path style="fill:none;stroke-width:1;stroke-linecap:butt;stroke-linejoin:miter;stroke:rgb(38.039216%,85.490196%,98.431373%);stroke-opacity:1;stroke-miterlimit:4;" d="M 10.999495 0 C 10.999495 -2.320983 6.07572 -4.199467 0 -4.199467 C -6.07572 -4.199467 -10.999495 -2.320983 -10.999495 0 C -10.999495 2.320983 -6.07572 4.199467 0 4.199467 C 6.07572 4.199467 10.999495 2.320983 10.999495 0 Z M 10.999495 0 " transform="matrix(1.359793,0,0,1.368291,16,14)"/>
<path style="fill:none;stroke-width:1;stroke-linecap:butt;stroke-linejoin:miter;stroke:rgb(38.039216%,85.490196%,98.431373%);stroke-opacity:1;stroke-miterlimit:4;" d="M 11.000865 -0.000867556 C 11.001088 -2.319382 6.07496 -4.201528 -0.0012517 -4.200154 C -6.076027 -4.201267 -10.999206 -2.320135 -11.000865 0.000867556 C -11.001088 2.319382 -6.07496 4.201528 0.0012517 4.200154 C 6.076027 4.201267 10.999206 2.320135 11.000865 -0.000867556 Z M 11.000865 -0.000867556 " transform="matrix(0.679896,1.184975,-1.177615,0.684146,16,14)"/>
<path style="fill:none;stroke-width:1;stroke-linecap:butt;stroke-linejoin:miter;stroke:rgb(38.039216%,85.490196%,98.431373%);stroke-opacity:1;stroke-miterlimit:4;" d="M 11.000865 0.000867556 C 10.999206 -2.320135 6.076027 -4.201267 0.0012517 -4.200154 C -6.07496 -4.201528 -11.001088 -2.319382 -11.000865 -0.000867556 C -10.999206 2.320135 -6.076027 4.201267 -0.0012517 4.200154 C 6.07496 4.201528 11.001088 2.319382 11.000865 0.000867556 Z M 11.000865 0.000867556 " transform="matrix(-0.679896,1.184975,-1.177615,-0.684146,16,14)"/>
</g>
</svg>
